<?xml version="1.0" standalone="no"?>
<!DOCTYPE svg PUBLIC "-//W3C//DTD SVG 20010904//EN"
 "http://www.w3.org/TR/2001/REC-SVG-20010904/DTD/svg10.dtd">
<svg version="1.0" xmlns="http://www.w3.org/2000/svg"
 width="94.000000pt" height="94.000000pt" viewBox="0 0 94.000000 94.000000"
 preserveAspectRatio="xMidYMid meet">

<g transform="translate(0.000000,94.000000) scale(0.100000,-0.100000)"
fill="#000000" stroke="none">
<path d="M605 760 c10 -32 -16 -189 -35 -213 -14 -17 -34 -21 -126 -28 -145
-11 -153 -14 -199 -63 -49 -53 -91 -65 -123 -36 l-22 21 0 -33 c0 -19 10 -54
23 -78 25 -49 58 -66 111 -56 l34 6 4 70 c3 60 8 74 31 97 25 26 34 28 149 34
68 4 124 8 125 8 1 1 11 11 23 23 18 19 20 35 20 139 0 75 -4 120 -11 125 -8
4 -9 -1 -4 -16z"/>
<path d="M356 761 c-4 -5 3 -7 14 -4 23 6 26 13 6 13 -8 0 -17 -4 -20 -9z"/>
<path d="M325 680 c3 -5 37 -10 74 -10 39 0 72 -5 79 -12 9 -9 12 -8 12 4 0
22 -21 28 -101 28 -44 0 -68 -4 -64 -10z"/>
<path d="M708 323 c12 -2 30 -2 40 0 9 3 -1 5 -23 4 -22 0 -30 -2 -17 -4z"/>
<path d="M350 127 c54 -32 196 -32 237 -1 16 12 14 12 -15 3 -34 -11 -192 -8
-227 5 -11 4 -9 1 5 -7z"/>
</g>
</svg>
